<?xml version="1.0" encoding="UTF-8" standalone="no"?>
<svg
   version="1.1"
   id="clover"
   viewBox="0 0 256 256"
   xml:space="preserve"
   sodipodi:docname="macLight.svg"
   inkscape:version="1.2.1 (9c6d41e410, 2022-07-14)"
   xmlns:inkscape="http://www.inkscape.org/namespaces/inkscape"
   xmlns:sodipodi="http://sodipodi.sourceforge.net/DTD/sodipodi-0.dtd"
   xmlns="http://www.w3.org/2000/svg"
   xmlns:svg="http://www.w3.org/2000/svg"><sodipodi:namedview
   id="namedview22"
   pagecolor="#ffffff"
   bordercolor="#000000"
   borderopacity="0.25"
   inkscape:showpageshadow="2"
   inkscape:pageopacity="0.0"
   inkscape:pagecheckerboard="0"
   inkscape:deskcolor="#d1d1d1"
   showgrid="false"
   inkscape:zoom="4.0117188"
   inkscape:cx="29.289191"
   inkscape:cy="128.49854"
   inkscape:window-width="2560"
   inkscape:window-height="1349"
   inkscape:window-x="-11"
   inkscape:window-y="-11"
   inkscape:window-maximized="1"
   inkscape:current-layer="clover" /><defs
   id="defs284"><linearGradient
     id="_lgradient_3"
     x1="0"
     y1="0.5"
     x2="1"
     y2="0.5"
     gradientTransform="matrix(241.99999,0,0,241.99999,6.8753682,7.000003)"
     gradientUnits="userSpaceOnUse"><stop
       offset="0%"
       stop-opacity="1"
       style="stop-color:rgb(238,205,163)"
       id="stop2" /><stop
       offset="98.26086956521739%"
       stop-opacity="1"
       style="stop-color:rgb(239,98,159)"
       id="stop4" /></linearGradient></defs>
<linearGradient
   id="CLOVER"
   gradientUnits="userSpaceOnUse"
   x1="23.6635"
   y1="23.6635"
   x2="232.3365"
   y2="232.3365">
	<stop
   offset="0"
   style="stop-color:#10D683"
   id="stop266" />
	<stop
   offset="0.0932"
   style="stop-color:#0EC87E"
   id="stop268" />
	<stop
   offset="0.3246"
   style="stop-color:#0BAB73"
   id="stop270" />
	<stop
   offset="0.5548"
   style="stop-color:#09976B"
   id="stop272" />
	<stop
   offset="0.7814"
   style="stop-color:#078A67"
   id="stop274" />
	<stop
   offset="1"
   style="stop-color:#078665"
   id="stop276" />
</linearGradient>

<path
   d="m 162.15943,49.220028 c 8.00245,-9.963372 13.4281,-23.50019 11.93111,-37.220027 -11.52583,0.483334 -25.88604,8.005676 -34.2055,17.679046 -7.34881,8.582457 -13.87727,22.610714 -12.18645,35.833885 12.93452,0.96538 26.18164,-6.544916 34.46033,-16.291882 z m 29.16194,86.199022 c -0.27646,-29.34028 24.0073,-43.585977 25.10698,-44.265214 -13.73833,-20.05138 -35.04031,-22.76861 -42.55124,-23.016204 -17.90248,-1.824038 -35.23244,10.756412 -44.36505,10.756412 -9.29444,-0.0013 -23.3307,-10.538721 -38.447614,-10.239059 -19.485107,0.291282 -37.731457,11.573838 -47.720347,29.045505 -20.564159,35.70995 -5.233856,88.15859 14.517465,116.95346 9.894156,14.17456 21.419724,29.95159 36.536841,29.32815 14.785095,-0.56196 20.297035,-9.38749 38.167225,-9.38749 17.6831,0 22.86302,9.38749 38.29064,9.08551 15.87685,-0.26036 25.86207,-14.20008 35.41338,-28.43329 11.37534,-16.23678 15.9685,-32.15449 16.15178,-33.00232 -0.3538,-0.13142 -30.77481,-11.70054 -31.10006,-46.82546 z"
   style="display:inline;fill:#f8f8f8;fill-opacity:1;fill-rule:evenodd;stroke-width:2.58144;enable-background:new"
   id="path121"
   inkscape:connector-curvature="0" /></svg>
